<svg width="115" height="115" xmlns="http://www.w3.org/2000/svg" xmlns:xlink="http://www.w3.org/1999/xlink" xml:space="preserve" overflow="hidden"><defs><clipPath id="clip0"><rect x="523" y="528" width="115" height="115"/></clipPath></defs><g clip-path="url(#clip0)" transform="translate(-523 -528)"><path d="M548.761 587.896C543.799 587.896 539.777 591.918 539.777 596.88 539.777 601.842 543.799 605.865 548.761 605.865 553.723 605.865 557.746 601.842 557.746 596.88 557.74 591.92 553.721 587.901 548.761 587.896ZM548.761 603.469C545.122 603.469 542.173 600.519 542.173 596.88 542.173 593.241 545.122 590.292 548.761 590.292 552.4 590.292 555.35 593.241 555.35 596.88 555.346 600.517 552.398 603.465 548.761 603.469Z" fill="#843C0C"/><path d="M560.088 597.939C560.013 598.753 559.85 599.556 559.601 600.335L602.606 600.335C602.359 599.556 602.196 598.753 602.121 597.939Z" fill="#843C0C"/><path d="M634.067 589.372C633.533 588.968 633.028 588.527 632.554 588.054 630.789 586.04 627.943 582.871 624.829 581.383 616.49 577.395 603.266 576.378 603.266 576.378L597.134 575.605C590.806 571.688 584.209 568.223 577.393 565.236 576.778 564.99 576.081 565.289 575.835 565.903 575.6 566.49 575.862 567.16 576.434 567.431 581.485 569.643 586.414 572.122 591.201 574.858L590.089 574.719 587.642 574.719C586.347 574.719 585.298 575.768 585.298 577.063L571.446 577.063C571.167 577.063 570.889 577.036 570.615 576.983L569.725 576.809 564.933 575.881 564.933 572.323C564.933 571.661 564.397 571.125 563.735 571.125 563.074 571.125 562.537 571.661 562.537 572.323L562.537 575.416 553.247 573.769C551.816 573.528 550.352 573.565 548.935 573.877 547.703 574.151 546.447 574.512 545.762 574.715 541.458 576.021 530.634 579.788 527.533 581.903 525.193 583.498 526.555 592.865 526.555 592.865L525.402 594.318 525.37 595.283C525.324 596.643 526.237 597.848 527.558 598.172L528.828 598.485C530.787 598.871 532.775 599.096 534.771 599.157L537.646 599.319C537.47 598.526 537.38 597.716 537.377 596.904L534.845 596.76C533 596.703 531.162 596.497 529.349 596.146L528.132 595.844C527.915 595.788 527.765 595.589 527.773 595.365L527.779 595.19 528.44 594.351 529.083 593.542 528.934 592.517C528.406 588.88 528.448 584.802 529.015 583.798 531.868 581.948 541.824 578.407 546.452 577.009 547.223 576.78 548.368 576.456 549.458 576.214 550.577 575.968 551.732 575.939 552.862 576.13L569.273 579.158 570.164 579.332C570.592 579.413 571.026 579.453 571.461 579.452L587.693 579.452 587.693 577.115 589.938 577.115 602.967 578.755 603.024 578.762 603.082 578.762C603.21 578.771 615.951 579.788 623.796 583.54 626.579 584.87 629.398 588.084 630.753 589.629L630.804 589.688 630.86 589.743C631.404 590.287 631.983 590.794 632.596 591.258 632.985 591.558 633.213 592.021 633.214 592.511L633.214 596.484 624.809 596.484C624.809 596.614 624.829 596.744 624.829 596.875 624.825 597.548 624.763 598.218 624.641 598.88L635.61 598.88 635.61 592.516C635.607 591.287 635.038 590.127 634.067 589.372Z" fill="#843C0C"/><path d="M613.449 587.896C608.487 587.896 604.464 591.918 604.464 596.88 604.464 601.842 608.487 605.865 613.449 605.865 618.411 605.865 622.433 601.842 622.433 596.88 622.428 591.92 618.408 587.901 613.449 587.896ZM613.449 603.469C609.81 603.469 606.86 600.519 606.86 596.88 606.86 593.241 609.81 590.292 613.449 590.292 617.087 590.292 620.037 593.241 620.037 596.88 620.033 600.517 617.086 603.465 613.449 603.469Z" fill="#843C0C"/></g></svg>