<svg width="122" height="123" xmlns="http://www.w3.org/2000/svg" xmlns:xlink="http://www.w3.org/1999/xlink" xml:space="preserve" overflow="hidden"><defs><clipPath id="clip0"><rect x="835" y="163" width="122" height="123"/></clipPath><clipPath id="clip1"><path d="M835.159 193.874 926.362 163.905 956.33 255.108 865.128 285.076Z" fill-rule="evenodd" clip-rule="evenodd"/></clipPath><clipPath id="clip2"><path d="M835.159 193.874 926.362 163.905 956.33 255.108 865.128 285.076Z" fill-rule="evenodd" clip-rule="evenodd"/></clipPath><clipPath id="clip3"><path d="M835.159 193.874 926.362 163.905 956.33 255.108 865.128 285.076Z" fill-rule="evenodd" clip-rule="evenodd"/></clipPath></defs><g clip-path="url(#clip0)" transform="translate(-835 -163)"><g clip-path="url(#clip1)"><g clip-path="url(#clip2)"><g clip-path="url(#clip3)"><path d="M909.479 192.61C911.664 191.892 916.885 194.119 924.383 202.77 930.69 210.044 936.299 219.415 938.674 226.643 940.177 231.216 941.126 236.946 937.112 238.265 931.556 240.091 928.871 238.728 925.154 236.842 920.154 234.304 913.931 231.146 899.491 235.891 885.05 240.636 881.914 246.87 879.393 251.879 877.519 255.602 876.166 258.292 870.61 260.117 869.081 260.648 867.383 260.178 866.343 258.936 864.523 256.841 863.195 254.363 862.458 251.687 860.083 244.459 859.037 233.588 859.803 223.991 860.709 212.579 863.593 207.688 865.778 206.97 870.243 205.503 871.806 206.009 873.792 206.652 876.676 207.577 879.945 208.63 889.501 205.49 899.057 202.35 901.065 199.563 902.838 197.108 904.055 195.412 905.014 194.077 909.479 192.61M908.854 190.71C897.644 194.394 905.217 198.221 888.877 203.59 872.536 208.96 876.364 201.386 865.153 205.07 853.183 209.003 855.464 267.2 871.235 262.018 885.77 257.241 875.89 245.751 900.115 237.791 924.341 229.831 923.201 244.942 937.736 240.165 953.507 234.983 920.825 186.777 908.854 190.71Z" fill="#FFFFFF"/><path d="M919.197 212.574C919.541 213.623 918.97 214.754 917.921 215.098 916.872 215.443 915.741 214.872 915.397 213.823 915.052 212.773 915.623 211.643 916.672 211.298 917.722 210.954 918.852 211.525 919.197 212.574Z" fill="#FFFFFF"/><path d="M915.37 220.147C915.714 221.197 915.143 222.327 914.094 222.672 913.044 223.016 911.914 222.445 911.569 221.396 911.225 220.347 911.796 219.216 912.845 218.872 913.895 218.527 915.025 219.098 915.37 220.147Z" fill="#FFFFFF"/><path d="M907.796 216.32C908.141 217.37 907.57 218.5 906.521 218.845 905.471 219.189 904.341 218.618 903.996 217.569 903.651 216.52 904.223 215.389 905.272 215.044 906.321 214.7 907.452 215.271 907.796 216.32Z" fill="#FFFFFF"/><path d="M911.623 208.747C911.968 209.796 911.397 210.927 910.348 211.271 909.298 211.616 908.168 211.045 907.823 209.996 907.479 208.946 908.05 207.816 909.099 207.471 910.148 207.126 911.279 207.698 911.623 208.747Z" fill="#FFFFFF"/><path d="M883.734 223.174 878.033 225.048 876.16 219.347C875.988 218.823 875.423 218.537 874.898 218.71 874.373 218.882 874.088 219.447 874.26 219.972L876.133 225.672 870.433 227.545C869.909 227.717 869.623 228.282 869.795 228.807 869.968 229.332 870.533 229.617 871.058 229.445L876.758 227.572 878.631 233.272C878.803 233.797 879.368 234.082 879.893 233.91 880.418 233.738 880.703 233.172 880.531 232.648L878.658 226.948 884.358 225.075C884.883 224.902 885.168 224.337 884.996 223.812 884.823 223.288 884.258 223.002 883.734 223.174Z" fill="#FFFFFF"/></g></g></g></g></svg>