<svg width="96" height="96" xmlns="http://www.w3.org/2000/svg" xmlns:xlink="http://www.w3.org/1999/xlink" xml:space="preserve" overflow="hidden"><defs><clipPath id="clip0"><rect x="1092" y="134" width="96" height="96"/></clipPath></defs><g clip-path="url(#clip0)" transform="translate(-1092 -134)"><path d="M1124.79 175.707C1125.18 176.097 1125.82 176.097 1126.21 175.707L1132 169.914 1137.79 175.707C1138.19 176.091 1138.82 176.08 1139.21 175.682 1139.58 175.295 1139.58 174.68 1139.21 174.293L1133.41 168.5 1139.21 162.707C1139.59 162.31 1139.58 161.677 1139.18 161.293 1138.79 160.919 1138.18 160.919 1137.79 161.293L1132 167.086 1126.21 161.293C1125.81 160.909 1125.18 160.92 1124.79 161.318 1124.42 161.705 1124.42 162.32 1124.79 162.707L1130.59 168.5 1124.79 174.293C1124.4 174.684 1124.4 175.316 1124.79 175.707Z" fill="#FFFFFF"/><path d="M1161.21 189.293C1160.82 188.903 1160.18 188.903 1159.79 189.293L1154 195.086 1148.21 189.293C1147.81 188.909 1147.18 188.92 1146.79 189.318 1146.42 189.705 1146.42 190.32 1146.79 190.707L1152.59 196.5 1146.79 202.293C1146.4 202.677 1146.38 203.31 1146.77 203.707 1147.15 204.104 1147.79 204.115 1148.18 203.732 1148.19 203.724 1148.2 203.715 1148.21 203.707L1154 197.914 1159.79 203.707C1160.19 204.091 1160.82 204.08 1161.21 203.682 1161.58 203.295 1161.58 202.68 1161.21 202.293L1155.41 196.5 1161.21 190.707C1161.6 190.316 1161.6 189.684 1161.21 189.293Z" fill="#FFFFFF"/><path d="M1132.23 204C1136.37 203.84 1139.72 200.574 1139.99 196.438 1140.21 192.247 1137.16 188.594 1133 188.069L1133 186C1133 184.343 1134.34 183 1136 183L1150 183C1152.76 183 1155 180.761 1155 178L1155 164.438C1155 164.432 1155 164.428 1155.01 164.428 1155.01 164.428 1155.02 164.429 1155.02 164.431L1160.29 169.707C1160.69 170.091 1161.32 170.08 1161.71 169.682 1162.08 169.295 1162.08 168.68 1161.71 168.293L1154.71 161.293C1154.7 161.284 1154.69 161.281 1154.68 161.272 1154.59 161.189 1154.49 161.121 1154.38 161.072L1154.38 161.072C1154.38 161.072 1154.36 161.072 1154.36 161.066 1154.26 161.028 1154.15 161.007 1154.04 161.004 1154.01 161.004 1153.98 161.006 1153.94 161.01 1153.86 161.015 1153.77 161.031 1153.69 161.058 1153.66 161.068 1153.63 161.079 1153.59 161.093 1153.48 161.14 1153.38 161.208 1153.3 161.293L1146.3 168.293C1145.91 168.69 1145.92 169.323 1146.32 169.707 1146.71 170.081 1147.32 170.081 1147.71 169.707L1152.98 164.431C1152.99 164.427 1153 164.427 1153 164.431 1153 164.433 1153 164.435 1153 164.438L1153 178C1153 179.657 1151.66 181 1150 181L1136 181C1133.24 181 1131 183.239 1131 186L1131 188.069C1126.62 188.637 1123.53 192.65 1124.1 197.031 1124.62 201.095 1128.13 204.104 1132.23 204ZM1132 190C1135.31 190 1138 192.686 1138 196 1138 199.314 1135.31 202 1132 202 1128.69 202 1126 199.314 1126 196 1126 192.688 1128.69 190.004 1132 190Z" fill="#FFFFFF"/><path d="M1111.45 198 1114 198 1114 206 1111.45 206C1110.1 206.002 1109 207.099 1109 208.452L1109 208.661C1109 209.952 1110.05 210.999 1111.34 211L1112 211C1112.55 211 1113 210.552 1113 210 1113 209.448 1112.55 209 1112 209L1111.34 209C1111.15 209 1111 208.848 1111 208.661L1111 208.452C1111 208.203 1111.2 208.001 1111.45 208L1114 208 1114 214C1114 214.552 1114.45 215 1115 215L1171 215C1171.55 215 1172 214.552 1172 214L1172 151C1172 150.448 1171.55 150 1171 150L1115 150C1114.45 150 1114 150.448 1114 151L1114 156 1111.45 156C1110.1 156.002 1109 157.098 1109 158.452L1109 158.661C1109 159.952 1110.05 160.999 1111.34 161L1112 161C1112.55 161 1113 160.552 1113 160 1113 159.448 1112.55 159 1112 159L1111.34 159C1111.15 159 1111 158.848 1111 158.661L1111 158.452C1111 158.203 1111.2 158.001 1111.45 158L1114 158 1114 166 1111.45 166C1110.1 166.002 1109 167.098 1109 168.452L1109 168.661C1109 169.952 1110.05 170.999 1111.34 171L1112 171C1112.55 171 1113 170.552 1113 170 1113 169.448 1112.55 169 1112 169L1111.34 169C1111.15 169 1111 168.848 1111 168.661L1111 168.452C1111 168.203 1111.2 168.001 1111.45 168L1114 168 1114 176 1111.45 176C1110.1 176.002 1109 177.098 1109 178.452L1109 178.661C1109 179.952 1110.05 180.999 1111.34 181L1112 181C1112.55 181 1113 180.552 1113 180 1113 179.448 1112.55 179 1112 179L1111.34 179C1111.15 179 1111 178.848 1111 178.661L1111 178.452C1111 178.203 1111.2 178.001 1111.45 178L1114 178 1114 186 1111.45 186C1110.1 186.002 1109 187.098 1109 188.452L1109 188.661C1109 189.952 1110.05 190.999 1111.34 191L1112 191C1112.55 191 1113 190.552 1113 190 1113 189.448 1112.55 189 1112 189L1111.34 189C1111.15 189 1111 188.848 1111 188.661L1111 188.452C1111 188.203 1111.2 188.001 1111.45 188L1114 188 1114 196 1111.45 196C1110.1 196.002 1109 197.098 1109 198.452L1109 198.661C1109 199.952 1110.05 200.999 1111.34 201L1112 201C1112.55 201 1113 200.552 1113 200 1113 199.448 1112.55 199 1112 199L1111.34 199C1111.15 199 1111 198.848 1111 198.661L1111 198.452C1111 198.203 1111.2 198.001 1111.45 198ZM1116 152 1170 152 1170 213 1116 213Z" fill="#FFFFFF"/></g></svg>