<svg width="36" height="35" xmlns="http://www.w3.org/2000/svg" xmlns:xlink="http://www.w3.org/1999/xlink" xml:space="preserve" overflow="hidden"><defs><clipPath id="clip0"><rect x="505" y="525" width="36" height="35"/></clipPath></defs><g clip-path="url(#clip0)" transform="translate(-505 -525)"><path d="M2.57214 18.6036 29.828 18.6036 26.5851 21.8466C26.1622 22.2694 26.1622 22.955 26.5851 23.3778 27.0079 23.8007 27.6935 23.8007 28.1163 23.3778L33.2168 18.2758C33.6397 17.8731 33.656 17.2039 33.2533 16.781 33.2414 16.7686 33.2293 16.7564 33.2168 16.7446L28.1152 11.6441C27.7125 11.2212 27.0433 11.2049 26.6204 11.6076 26.608 11.6195 26.5958 11.6316 26.584 11.6441 26.1611 12.0468 26.1448 12.716 26.5475 13.1389 26.5594 13.1513 26.5715 13.1635 26.584 13.1753L29.8269 16.4201 2.57214 16.4201C1.96808 16.4201 1.47839 16.9098 1.47839 17.5139 1.47839 18.1179 1.96808 18.6076 2.57214 18.6076Z" transform="matrix(1.02857 0 0 1 505 525)"/></g></svg>