<svg width="96" height="96" xmlns="http://www.w3.org/2000/svg" xmlns:xlink="http://www.w3.org/1999/xlink" xml:space="preserve" overflow="hidden"><defs><clipPath id="clip0"><rect x="953" y="105" width="96" height="96"/></clipPath></defs><g clip-path="url(#clip0)" transform="translate(-953 -105)"><path d="M1006.2 192.414 988.493 174.707C987.955 174.145 987.106 174.018 986.427 174.396 984.46 175.441 983.194 177.449 983.1 179.674 983.243 182.71 981.472 185.51 978.669 186.683 975.104 188.189 970.985 187.416 968.208 184.722L967.493 184.007C964.72 181.155 963.923 176.92 965.47 173.255 966.613 170.505 969.355 168.765 972.33 168.9 974.55 168.793 976.552 167.531 977.605 165.573 977.983 164.893 977.855 164.045 977.293 163.507L959.589 145.8 972.39 132.9C973.507 131.76 975.228 131.463 976.662 132.162 979.375 133.536 981.117 136.286 981.2 139.326 981.087 141.49 982.359 143.488 984.368 144.3 987.286 145.493 990.632 144.856 992.908 142.675L993.593 141.99C995.721 139.802 996.336 136.554 995.155 133.74 994.312 131.678 992.254 130.378 990.03 130.5 986.987 130.421 984.233 128.679 982.858 125.963 982.159 124.53 982.455 122.81 983.593 121.693L995.8 109.589 1013.5 127.289C1014.04 127.85 1014.89 127.978 1015.57 127.6 1017.53 126.558 1018.8 124.551 1018.9 122.326 1018.76 119.291 1020.53 116.49 1023.33 115.317 1026.89 113.811 1031.01 114.583 1033.79 117.278L1034.51 117.993C1037.28 120.845 1038.08 125.08 1036.53 128.745 1035.39 131.497 1032.65 133.238 1029.67 133.1 1027.45 133.196 1025.44 134.462 1024.4 136.427 1024.02 137.106 1024.15 137.955 1024.71 138.493L1042.41 156.2 1030.31 168.307C1029.19 169.447 1027.47 169.743 1026.04 169.042 1023.32 167.667 1021.58 164.915 1021.5 161.874 1021.61 159.71 1020.34 157.713 1018.33 156.9 1015.42 155.706 1012.07 156.343 1009.79 158.525L1009.11 159.21C1006.98 161.398 1006.36 164.646 1007.54 167.46 1008.39 169.52 1010.45 170.82 1012.67 170.7L1012.67 170.7C1015.72 170.738 1018.49 172.475 1019.85 175.2 1020.55 176.644 1020.25 178.376 1019.1 179.5ZM987.322 172.192C988.297 172.193 989.23 172.59 989.907 173.292L1006.2 189.586 1017.69 178.093C1018.26 177.547 1018.4 176.685 1018.01 175.993 1016.98 174.018 1014.96 172.759 1012.73 172.7 1009.69 172.839 1006.89 171.07 1005.72 168.269 1004.21 164.705 1004.98 160.585 1007.68 157.808L1008.39 157.093C1011.24 154.32 1015.48 153.523 1019.15 155.07 1021.89 156.214 1023.64 158.955 1023.5 161.93 1023.6 164.154 1024.86 166.161 1026.83 167.205 1027.51 167.582 1028.36 167.454 1028.89 166.893L1039.59 156.2 1023.29 139.907C1022.15 138.79 1021.86 137.07 1022.56 135.637 1023.93 132.918 1026.68 131.174 1029.73 131.1 1031.89 131.213 1033.89 129.941 1034.7 127.932 1035.89 125.014 1035.26 121.667 1033.07 119.392L1032.39 118.707C1030.2 116.579 1026.96 115.965 1024.14 117.145 1022.08 117.987 1020.78 120.045 1020.9 122.27 1020.82 125.313 1019.08 128.066 1016.36 129.442 1014.93 130.143 1013.21 129.847 1012.09 128.707L995.8 112.411 985 123.11C984.441 123.648 984.315 124.495 984.692 125.173 985.734 127.144 987.746 128.411 989.974 128.5 993.008 128.361 995.807 130.13 996.983 132.931 998.489 136.495 997.717 140.615 995.022 143.392L994.307 144.107C991.455 146.88 987.221 147.677 983.556 146.13 980.806 144.987 979.065 142.245 979.2 139.27 979.102 137.048 977.837 135.044 975.873 134 975.193 133.623 974.345 133.751 973.807 134.312L962.411 145.8 978.711 162.1C979.851 163.216 980.147 164.937 979.446 166.37 978.066 169.08 975.314 170.818 972.274 170.9 970.112 170.793 968.117 172.063 967.3 174.068 966.107 176.986 966.744 180.332 968.925 182.608L969.61 183.293C971.798 185.421 975.046 186.036 977.86 184.855 979.923 184.013 981.224 181.955 981.1 179.73 981.18 176.688 982.921 173.934 985.636 172.558 986.167 172.323 986.741 172.198 987.322 172.192Z" fill="#FFFFFF"/></g></svg>