<svg width="96" height="96" xmlns="http://www.w3.org/2000/svg" xmlns:xlink="http://www.w3.org/1999/xlink" xml:space="preserve" overflow="hidden"><defs><clipPath id="clip0"><rect x="978" y="253" width="96" height="96"/></clipPath></defs><g clip-path="url(#clip0)" transform="translate(-978 -253)"><path d="M1065 288 1065 286 1041 286 1041 264 1039 264 1039 286 1013 286 1013 264 1011 264 1011 286 987 286 987 288 1011 288 1011 314 987 314 987 316 1011 316 1011 338 1013 338 1013 316 1039 316 1039 338 1041 338 1041 316 1065 316 1065 314 1041 314 1041 288ZM1039 314 1013 314 1013 288 1039 288Z" fill="#FFFFFF"/><path d="M1060.71 268.707 1059.29 267.293 1054 272.586 1048.71 267.293 1047.29 268.707 1052.59 274 1047.29 279.293 1048.71 280.707 1054 275.414 1059.29 280.707 1060.71 279.293 1055.41 274 1060.71 268.707Z" fill="#FFFFFF"/><path d="M1032.71 295.707 1031.29 294.293 1026 299.586 1020.71 294.293 1019.29 295.707 1024.59 301 1019.29 306.293 1020.71 307.707 1026 302.414 1031.29 307.707 1032.71 306.293 1027.41 301 1032.71 295.707Z" fill="#FFFFFF"/><path d="M998 281C994.134 281 991 277.866 991 274 991 270.134 994.134 267 998 267 1001.87 267 1005 270.134 1005 274 1005 277.864 1001.86 280.996 998 281ZM998 269C995.239 269 993 271.239 993 274 993 276.761 995.239 279 998 279 1000.76 279 1003 276.761 1003 274 1003 271.24 1000.76 269.003 998 269Z" fill="#FFFFFF"/><path d="M998 335C994.134 335 991 331.866 991 328 991 324.134 994.134 321 998 321 1001.87 321 1005 324.134 1005 328 1005 331.864 1001.86 334.996 998 335ZM998 323C995.239 323 993 325.239 993 328 993 330.761 995.239 333 998 333 1000.76 333 1003 330.761 1003 328 1003 325.24 1000.76 323.003 998 323Z" fill="#FFFFFF"/><path d="M1054 335C1050.13 335 1047 331.866 1047 328 1047 324.134 1050.13 321 1054 321 1057.87 321 1061 324.134 1061 328 1061 331.864 1057.86 334.996 1054 335ZM1054 323C1051.24 323 1049 325.239 1049 328 1049 330.761 1051.24 333 1054 333 1056.76 333 1059 330.761 1059 328 1059 325.24 1056.76 323.003 1054 323Z" fill="#FFFFFF"/></g></svg>