<svg width="114" height="115" xmlns="http://www.w3.org/2000/svg" xmlns:xlink="http://www.w3.org/1999/xlink" xml:space="preserve" overflow="hidden"><defs><clipPath id="clip0"><rect x="346" y="413" width="114" height="115"/></clipPath></defs><g clip-path="url(#clip0)" transform="translate(-346 -413)"><path d="M55.575 33.7594C58.1983 33.7594 60.325 31.6327 60.325 29.0094 60.325 26.3861 58.1983 24.2594 55.575 24.2594 52.9517 24.2594 50.825 26.3861 50.825 29.0094 50.8406 31.6263 52.9581 33.7439 55.575 33.7594ZM55.575 26.6344C56.8867 26.6344 57.95 27.6977 57.95 29.0094 57.95 30.3211 56.8867 31.3844 55.575 31.3844 54.2633 31.3844 53.2 30.3211 53.2 29.0094 53.2166 27.7047 54.2703 26.6511 55.575 26.6344Z" fill="#262626" transform="matrix(1 0 0 1.00877 346 413)"/><path d="M41.325 56.7174C43.9483 56.7174 46.075 54.5907 46.075 51.9674 46.075 49.3441 43.9483 47.2174 41.325 47.2174 38.7017 47.2174 36.575 49.3441 36.575 51.9674 36.575 54.5907 38.7017 56.7174 41.325 56.7174ZM41.325 49.5924C42.6367 49.5924 43.7 50.6557 43.7 51.9674 43.7 53.2791 42.6367 54.3424 41.325 54.3424 40.0133 54.3424 38.95 53.2791 38.95 51.9674 38.95 50.6557 40.0133 49.5924 41.325 49.5924Z" fill="#262626" transform="matrix(1 0 0 1.00877 346 413)"/><path d="M31.7181 57.1698 30.7004 60.1101 32.9567 62.3722 35.8969 61.4674C36.6761 61.9223 37.5156 62.265 38.3907 62.4851L39.7456 65.3125 42.9115 65.3125 44.156 62.5979C45.0311 62.3778 45.8705 62.0351 46.6497 61.5802L49.5888 62.5979 51.8451 60.3416 50.9438 57.3954C51.398 56.618 51.7404 55.7806 51.9614 54.9076L54.7877 53.5503 54.9005 50.1576 52.0707 48.8062C51.8501 47.9314 51.5075 47.0919 51.053 46.3125L52.0707 43.3722 49.8144 41.1101 46.8742 42.1278C46.0966 41.6738 45.2592 41.3312 44.3864 41.1101L43.0303 38.2826 39.7456 38.2826 38.3895 41.1101C37.5147 41.3307 36.6751 41.6733 35.8958 42.1278L32.9555 41.1101 30.6992 43.3722 31.7181 46.3125C31.2637 47.0898 30.9211 47.9274 30.7004 48.8003L27.8742 50.1576 27.8742 53.3247 30.7004 54.682C30.9211 55.5549 31.2637 56.3925 31.7181 57.1698ZM30.2492 51.6562 31.7288 50.9438 32.7346 50.4616 33.0042 49.3786C33.1719 48.7162 33.4333 48.0812 33.7808 47.4929L34.3152 46.5571 33.9589 45.5382 33.4269 44.0028 33.5861 43.8437 35.1215 44.3745 36.1404 44.7308 37.0761 44.1964C37.6645 43.8491 38.2996 43.5877 38.9619 43.4198L40.0437 43.149 40.527 42.1432 41.2395 40.6636 41.5293 40.6636 42.2417 42.1432 42.7251 43.149 43.8069 43.4198C44.4691 43.5877 45.1042 43.8491 45.6926 44.1964L46.6284 44.7308 47.6473 44.3745 49.1827 43.8437 49.3406 44.0028 48.8062 45.5359 48.45 46.5547 48.9844 47.4905C49.3311 48.0791 49.5926 48.7141 49.761 49.3763L50.0306 50.4593 51.0364 50.9414 52.4614 51.6278 52.4483 52.0327 50.9188 52.7666 49.913 53.2499 49.6423 54.3317C49.4753 54.9941 49.2142 55.6292 48.8668 56.2174L48.3562 57.1104 48.659 58.0937 49.1435 59.6683 48.944 59.8678 47.4097 59.3358 46.3909 58.9796 45.4539 59.5151C44.8658 59.8618 44.2312 60.1228 43.5694 60.2906L42.4614 60.5673 41.9864 61.6051 41.3879 62.9375 41.2407 62.9375 40.5282 61.4579 40.0449 60.4521 38.9631 60.1813C38.3007 60.0136 37.6656 59.7522 37.0773 59.4047L36.1843 58.8941 35.2011 59.1969 33.6276 59.6814 33.4281 59.4819 33.9625 57.95 34.3187 56.9311 33.7844 55.9954C33.4371 55.407 33.1757 54.7719 33.0077 54.1096L32.7382 53.0266 31.7324 52.5445 30.2528 51.832Z" fill="#262626" transform="matrix(1 0 0 1.00877 346 413)"/><path d="M45.8517 34.3247 44.8341 37.2649 47.0903 39.5271 50.0306 38.5094C50.8081 38.9634 51.6456 39.306 52.5184 39.5271L53.8745 42.3546 57.0404 42.3546 58.3977 39.6399C59.2725 39.4193 60.1121 39.0767 60.8914 38.6222L63.8305 39.6399 66.0927 37.3778 65.075 34.4375C65.5647 33.6643 65.9452 32.8271 66.2055 31.9497L69.0318 30.5924 69.0318 27.1997 66.2055 25.8424C65.9845 24.9694 65.642 24.132 65.1878 23.3546L66.2055 20.4131 63.9493 18.1569 61.009 19.1746C60.2317 18.7201 59.3941 18.3775 58.5212 18.1569L57.1591 15.4375 53.9932 15.4375 52.6359 18.2649C51.7609 18.485 50.9213 18.8277 50.1422 19.2826L47.2031 18.2649 44.9469 20.5271 45.8517 23.4674C45.3978 24.2449 45.0552 25.0824 44.8341 25.9552L42.0078 27.3125 42.0078 30.4796 44.8341 31.8369C45.0554 32.7096 45.398 33.547 45.8517 34.3247ZM44.3828 28.8064 45.8624 28.0939 46.8682 27.6118 47.1378 26.5287C47.306 25.8665 47.5675 25.2316 47.9144 24.643L48.4239 23.75 48.1222 22.7668 47.6378 21.1921 47.8372 20.9938 49.3715 21.5246 50.3904 21.8809 51.3273 21.3465C51.9152 20.999 52.5498 20.7375 53.2119 20.5699L54.2949 20.2991 54.777 19.2933 55.4895 17.8137 55.6938 17.8137 56.3944 19.2149 56.8813 20.1875 57.9405 20.4523C58.6027 20.62 59.2376 20.8811 59.8263 21.2277L60.762 21.7633 61.7809 21.4071 63.3163 20.8751 63.4743 21.0342 62.9375 22.5779 62.5812 23.5956 63.1156 24.5326C63.4629 25.1211 63.7243 25.756 63.8923 26.4183L64.1618 27.5001 65.1676 27.9834 66.6472 28.6959 66.6472 29.0938 65.1676 29.8062 64.1618 30.2884 63.8923 31.3714C63.6786 32.0358 63.3797 32.6697 63.0028 33.2571L62.4684 34.1929 62.8247 35.2118 63.3555 36.7472 63.1964 36.9063 61.6621 36.3755 60.6432 36.0192 59.7063 36.5536C59.1184 36.9011 58.4838 37.1626 57.8218 37.3302L56.7613 37.5951 56.2733 38.5724 55.5726 39.9736 55.3696 39.9736 54.6571 38.4928 54.1737 37.487 53.0919 37.2163C52.4296 37.049 51.7946 36.7879 51.2062 36.4408L50.2704 35.9064 49.2516 36.2627 47.7161 36.7935 47.5582 36.6344 48.089 35.0989 48.4453 34.0801 47.9109 33.1443C47.5641 32.5557 47.3026 31.9207 47.1343 31.2586L46.8647 30.1756 45.8589 29.6934 44.3793 28.9809Z" fill="#262626" transform="matrix(1 0 0 1.00877 346 413)"/><path d="M30.6375 72.4577 30.6375 102.51 68.1625 102.51 68.1625 88.2598 73.9812 88.2598C77.726 88.253 81.3145 86.7577 83.9562 84.1035 86.5613 81.3905 88.0092 77.7709 87.9938 74.0098L87.9938 66.8848 93.2188 66.8848C96.3063 66.5285 99.0375 62.966 96.1875 58.5723L87.9938 44.3223 87.9938 43.7285C88.765 24.0205 73.4137 7.41893 53.7058 6.6477 33.9979 5.87647 17.3963 21.2277 16.625 40.9356 16.5885 41.8663 16.5885 42.7979 16.625 43.7285 16.584 54.9606 21.7611 65.5749 30.6375 72.4577ZM35.2878 13.6871C51.1171 4.28462 71.5717 9.49467 80.9742 25.324 84.256 30.8491 85.871 37.2048 85.6247 43.6264L85.6247 44.9398 85.9406 45.4896 94.1343 59.7396 94.1664 59.7942 94.2008 59.8476C94.9719 60.7783 95.1997 62.0445 94.8017 63.1857 94.4649 63.8744 93.8186 64.3602 93.0632 64.4919L85.6188 64.4919 85.6188 73.9919C85.6315 77.124 84.4339 80.14 82.2759 82.4101 80.0861 84.6292 77.0989 85.8793 73.9812 85.8812L65.7875 85.8812 65.7875 100.131 33.0125 100.131 33.0125 71.2927 32.091 70.5803C23.7762 64.1555 18.935 54.2194 19 43.7119L19 43.6691 19 43.6264C18.5179 31.4121 24.772 19.9171 35.2889 13.6871Z" fill="#262626" transform="matrix(1 0 0 1.00877 346 413)"/></g></svg>