<svg width="128" height="128" xmlns="http://www.w3.org/2000/svg" xmlns:xlink="http://www.w3.org/1999/xlink" xml:space="preserve" overflow="hidden"><defs><clipPath id="clip0"><rect x="806" y="401" width="128" height="128"/></clipPath></defs><g clip-path="url(#clip0)" transform="translate(-806 -401)"><path d="M902 471.667C895.373 471.667 890 477.039 890 483.667 890 490.294 895.373 495.667 902 495.667 908.627 495.667 914 490.294 914 483.667 913.993 477.042 908.625 471.673 902 471.667ZM902 493C896.845 493 892.667 488.821 892.667 483.667 892.667 478.512 896.845 474.333 902 474.333 907.155 474.333 911.333 478.512 911.333 483.667 911.333 488.821 907.155 493 902 493Z" fill="#262626"/><path d="M852.415 481.023C852.579 481.895 852.663 482.779 852.667 483.667L852.667 483.689 887.341 483.689 887.341 483.667C887.345 482.779 887.429 481.895 887.593 481.023Z" fill="#262626"/><path d="M915.333 459.667C921.224 459.667 926 464.442 926 470.333L926 478.355C926 479.827 924.806 481.021 923.333 481.021L916.417 481.021C916.58 481.894 916.664 482.779 916.667 483.667L916.667 483.689 923.333 483.689C926.275 483.68 928.657 481.298 928.667 478.356L928.667 470.356C928.646 462.992 922.684 457.026 915.32 457L904.267 457C902.85 457.046 901.485 456.466 900.533 455.415L883.733 438.748C881.716 436.745 878.976 435.639 876.133 435.681L854.049 435.681C854.032 435.681 854.017 435.672 854 435.672 853.983 435.672 853.969 435.681 853.952 435.681L837.067 435.681C834.229 435.665 831.499 436.767 829.467 438.748L812.933 455.415C811.897 456.433 811.319 457.829 811.333 459.281L811.333 473.015C811.352 478.898 816.117 483.662 822 483.681L823.333 483.681 823.333 483.667C823.337 482.78 823.421 481.895 823.584 481.023L822 481.023C817.582 481.023 814 477.441 814 473.023L814 459.667ZM881.859 440.637 898.349 457 855.333 457 855.333 438.343 876.133 438.343C878.274 438.299 880.341 439.127 881.859 440.637ZM831.355 440.629C832.884 439.145 834.936 438.324 837.067 438.343L852.667 438.343 852.667 457 815.151 457C815.132 457 815.128 456.989 815.14 456.977Z" fill="#262626"/><path d="M838 471.667C831.373 471.667 826 477.039 826 483.667 826 490.294 831.373 495.667 838 495.667 844.627 495.667 850 490.294 850 483.667 849.993 477.042 844.625 471.673 838 471.667ZM838 493C832.845 493 828.667 488.821 828.667 483.667 828.667 478.512 832.845 474.333 838 474.333 843.155 474.333 847.333 478.512 847.333 483.667 847.333 488.821 843.155 493 838 493Z" fill="#262626"/></g></svg>