<svg width="115" height="114" xmlns="http://www.w3.org/2000/svg" xmlns:xlink="http://www.w3.org/1999/xlink" xml:space="preserve" overflow="hidden"><defs><clipPath id="clip0"><rect x="227" y="441" width="115" height="114"/></clipPath></defs><g clip-path="url(#clip0)" transform="translate(-227 -441)"><path d="M25.5372 59.375C20.6184 59.375 16.6309 63.3625 16.6309 68.2812 16.6309 73.2 20.6184 77.1875 25.5372 77.1875 30.4559 77.1875 34.4434 73.2 34.4434 68.2812 34.4382 63.3646 30.4538 59.3802 25.5372 59.375ZM25.5372 74.8125C21.93 74.8125 19.0059 71.8884 19.0059 68.2812 19.0059 64.6741 21.93 61.75 25.5372 61.75 29.1443 61.75 32.0684 64.6741 32.0684 68.2812 32.0645 71.8867 29.1427 74.8086 25.5372 74.8125Z" fill="#8BDB81" transform="matrix(1.00877 0 0 1 227 441)"/><path d="M36.765 69.331C36.6911 70.1378 36.5294 70.9342 36.2829 71.706L78.9141 71.706C78.6685 70.934 78.5073 70.1377 78.4332 69.331Z" fill="#8BDB81" transform="matrix(1.00877 0 0 1 227 441)"/><path d="M110.101 60.838C109.572 60.4377 109.071 60.0012 108.602 59.5317 106.851 57.5356 104.031 54.3934 100.943 52.9186 92.6772 48.9654 79.5684 47.9572 79.5684 47.9572L73.4896 47.1913C67.2168 43.3079 60.6771 39.8729 53.9196 36.9123 53.3108 36.6683 52.6195 36.9643 52.3758 37.5731 52.1424 38.1556 52.4026 38.819 52.9696 39.0877 57.9761 41.2807 62.8624 43.7384 67.6079 46.4503L66.5059 46.3125 64.0799 46.3125C62.7964 46.3125 61.7559 47.353 61.7559 48.6364L48.0249 48.6364C47.7482 48.6367 47.4722 48.61 47.2008 48.5569L46.3184 48.3847 41.5684 47.4644 41.5684 43.9375C41.5684 43.2816 41.0368 42.75 40.3809 42.75 39.7251 42.75 39.1934 43.2816 39.1934 43.9375L39.1934 47.0036 29.9844 45.3708C28.5657 45.1321 27.1143 45.1683 25.7094 45.4777 24.4886 45.7496 23.2429 46.1071 22.5637 46.3089 18.297 47.6033 7.56794 51.338 4.4935 53.4339 2.17431 55.0157 3.5245 64.3008 3.5245 64.3008L2.38094 65.7412 2.34888 66.6983C2.30389 68.0457 3.20912 69.2403 4.51844 69.5614L5.77719 69.8725C7.71951 70.2545 9.68979 70.4773 11.6684 70.5387L14.5184 70.699C14.344 69.9129 14.2549 69.1102 14.2524 68.305L11.742 68.1625C9.91254 68.1056 8.0906 67.9018 6.29375 67.5533L5.08725 67.2541C4.87198 67.1986 4.72397 67.0012 4.731 66.7791L4.73694 66.6057 5.39244 65.7744 6.03013 64.9717 5.88287 63.9564C5.35919 60.3511 5.40075 56.3077 5.96244 55.3126 8.79106 53.4791 18.6604 49.9688 23.2477 48.583 24.0124 48.3562 25.1477 48.0344 26.2283 47.7945 27.3371 47.5506 28.4825 47.5223 29.602 47.7114L45.8707 50.7134 46.7543 50.8856C47.1777 50.9663 47.6081 51.0061 48.0391 51.0043L64.1309 51.0043 64.1309 48.6875 66.3563 48.6875 79.2716 50.3132 79.3286 50.3203 79.3856 50.3203C79.5126 50.3298 92.1429 51.338 99.9198 55.0572 102.678 56.3754 105.473 59.5614 106.816 61.0933L106.867 61.1515 106.923 61.2061C107.461 61.7457 108.036 62.2477 108.643 62.7083 109.029 63.0052 109.255 63.4639 109.256 63.9504L109.256 67.8882 100.923 67.8882C100.923 68.0176 100.943 68.1459 100.943 68.2765 100.94 68.9429 100.878 69.6078 100.757 70.2632L111.631 70.2632 111.631 63.9552C111.628 62.7362 111.064 61.5865 110.101 60.838Z" fill="#8BDB81" transform="matrix(1.00877 0 0 1 227 441)"/><path d="M89.6622 59.375C84.7434 59.375 80.7559 63.3625 80.7559 68.2812 80.7559 73.2 84.7434 77.1875 89.6622 77.1875 94.5809 77.1875 98.5684 73.2 98.5684 68.2812 98.5632 63.3646 94.5788 59.3802 89.6622 59.375ZM89.6622 74.8125C86.055 74.8125 83.1309 71.8884 83.1309 68.2812 83.1309 64.6741 86.055 61.75 89.6622 61.75 93.2693 61.75 96.1934 64.6741 96.1934 68.2812 96.1895 71.8867 93.2677 74.8086 89.6622 74.8125Z" fill="#8BDB81" transform="matrix(1.00877 0 0 1 227 441)"/></g></svg>