<svg width="115" height="115" xmlns="http://www.w3.org/2000/svg" xmlns:xlink="http://www.w3.org/1999/xlink" xml:space="preserve" overflow="hidden"><defs><clipPath id="clip0"><rect x="71" y="528" width="115" height="115"/></clipPath></defs><g clip-path="url(#clip0)" transform="translate(-71 -528)"><path d="M96.7612 587.896C91.7993 587.896 87.7768 591.918 87.7768 596.88 87.7768 601.842 91.7993 605.865 96.7612 605.865 101.723 605.865 105.746 601.842 105.746 596.88 105.74 591.92 101.721 587.901 96.7612 587.896ZM96.7612 603.469C93.1224 603.469 90.1727 600.519 90.1727 596.88 90.1727 593.241 93.1224 590.292 96.7612 590.292 100.4 590.292 103.35 593.241 103.35 596.88 103.346 600.517 100.398 603.465 96.7612 603.469Z" fill="#7F7F7F"/><path d="M108.087 597.939C108.013 598.753 107.85 599.556 107.601 600.335L150.606 600.335C150.359 599.556 150.196 598.753 150.121 597.939Z" fill="#7F7F7F"/><path d="M182.067 589.372C181.533 588.968 181.028 588.527 180.554 588.054 178.789 586.04 175.943 582.871 172.829 581.383 164.49 577.395 151.266 576.378 151.266 576.378L145.134 575.605C138.806 571.688 132.209 568.223 125.393 565.236 124.778 564.99 124.081 565.289 123.835 565.903 123.6 566.49 123.862 567.16 124.434 567.431 129.485 569.643 134.414 572.122 139.201 574.858L138.089 574.719 135.642 574.719C134.347 574.719 133.298 575.768 133.298 577.063L119.446 577.063C119.167 577.063 118.889 577.036 118.615 576.983L117.725 576.809 112.933 575.881 112.933 572.323C112.933 571.661 112.397 571.125 111.735 571.125 111.074 571.125 110.537 571.661 110.537 572.323L110.537 575.416 101.247 573.769C99.8162 573.528 98.3521 573.565 96.9349 573.877 95.7034 574.151 94.4468 574.512 93.7616 574.715 89.4575 576.021 78.6343 579.788 75.5329 581.903 73.1934 583.498 74.5554 592.865 74.5554 592.865L73.4018 594.318 73.3695 595.283C73.3241 596.643 74.2373 597.848 75.5581 598.172L76.8279 598.485C78.7872 598.871 80.7748 599.096 82.7707 599.157L85.6457 599.319C85.4699 598.526 85.3799 597.716 85.3774 596.904L82.845 596.76C80.9995 596.703 79.1616 596.497 77.349 596.146L76.1319 595.844C75.9147 595.788 75.7654 595.589 75.7725 595.365L75.7785 595.19 76.4397 594.351 77.083 593.542 76.9345 592.517C76.4062 588.88 76.4481 584.802 77.0147 583.798 79.8682 581.948 89.8241 578.407 94.4516 577.009 95.2231 576.78 96.3683 576.456 97.4584 576.214 98.5769 575.968 99.7324 575.939 100.862 576.13L117.273 579.158 118.164 579.332C118.592 579.413 119.026 579.453 119.461 579.452L135.693 579.452 135.693 577.115 137.938 577.115 150.967 578.755 151.024 578.762 151.082 578.762C151.21 578.771 163.951 579.788 171.796 583.54 174.579 584.87 177.398 588.084 178.753 589.629L178.804 589.688 178.86 589.743C179.404 590.287 179.983 590.794 180.596 591.258 180.985 591.558 181.213 592.021 181.214 592.511L181.214 596.484 172.809 596.484C172.809 596.614 172.829 596.744 172.829 596.875 172.825 597.548 172.763 598.218 172.641 598.88L183.61 598.88 183.61 592.516C183.607 591.287 183.038 590.127 182.067 589.372Z" fill="#7F7F7F"/><path d="M161.449 587.896C156.487 587.896 152.464 591.918 152.464 596.88 152.464 601.842 156.487 605.865 161.449 605.865 166.411 605.865 170.433 601.842 170.433 596.88 170.428 591.92 166.408 587.901 161.449 587.896ZM161.449 603.469C157.81 603.469 154.86 600.519 154.86 596.88 154.86 593.241 157.81 590.292 161.449 590.292 165.087 590.292 168.037 593.241 168.037 596.88 168.033 600.517 165.086 603.465 161.449 603.469Z" fill="#7F7F7F"/></g></svg>