<svg width="115" height="115" xmlns="http://www.w3.org/2000/svg" xmlns:xlink="http://www.w3.org/1999/xlink" xml:space="preserve" overflow="hidden"><defs><clipPath id="clip0"><rect x="386" y="528" width="115" height="115"/></clipPath></defs><g clip-path="url(#clip0)" transform="translate(-386 -528)"><path d="M411.761 587.896C406.799 587.896 402.777 591.918 402.777 596.88 402.777 601.842 406.799 605.865 411.761 605.865 416.723 605.865 420.746 601.842 420.746 596.88 420.74 591.92 416.721 587.901 411.761 587.896ZM411.761 603.469C408.122 603.469 405.173 600.519 405.173 596.88 405.173 593.241 408.122 590.292 411.761 590.292 415.4 590.292 418.35 593.241 418.35 596.88 418.346 600.517 415.398 603.465 411.761 603.469Z" fill="#262626"/><path d="M423.087 597.939C423.013 598.753 422.85 599.556 422.601 600.335L465.606 600.335C465.359 599.556 465.196 598.753 465.121 597.939Z" fill="#262626"/><path d="M497.067 589.372C496.533 588.968 496.028 588.527 495.554 588.054 493.789 586.04 490.943 582.871 487.829 581.383 479.49 577.395 466.266 576.378 466.266 576.378L460.134 575.605C453.806 571.688 447.209 568.223 440.393 565.236 439.778 564.99 439.081 565.289 438.835 565.903 438.6 566.49 438.862 567.16 439.434 567.431 444.485 569.643 449.414 572.122 454.201 574.858L453.089 574.719 450.642 574.719C449.347 574.719 448.298 575.768 448.298 577.063L434.446 577.063C434.167 577.063 433.889 577.036 433.615 576.983L432.725 576.809 427.933 575.881 427.933 572.323C427.933 571.661 427.397 571.125 426.735 571.125 426.074 571.125 425.537 571.661 425.537 572.323L425.537 575.416 416.247 573.769C414.816 573.528 413.352 573.565 411.935 573.877 410.703 574.151 409.447 574.512 408.762 574.715 404.457 576.021 393.634 579.788 390.533 581.903 388.193 583.498 389.555 592.865 389.555 592.865L388.402 594.318 388.369 595.283C388.324 596.643 389.237 597.848 390.558 598.172L391.828 598.485C393.787 598.871 395.775 599.096 397.771 599.157L400.646 599.319C400.47 598.526 400.38 597.716 400.377 596.904L397.845 596.76C395.999 596.703 394.162 596.497 392.349 596.146L391.132 595.844C390.915 595.788 390.765 595.589 390.772 595.365L390.779 595.19 391.44 594.351 392.083 593.542 391.934 592.517C391.406 588.88 391.448 584.802 392.015 583.798 394.868 581.948 404.824 578.407 409.452 577.009 410.223 576.78 411.368 576.456 412.458 576.214 413.577 575.968 414.732 575.939 415.862 576.13L432.273 579.158 433.164 579.332C433.592 579.413 434.026 579.453 434.461 579.452L450.693 579.452 450.693 577.115 452.938 577.115 465.967 578.755 466.024 578.762 466.082 578.762C466.21 578.771 478.951 579.788 486.796 583.54 489.579 584.87 492.398 588.084 493.753 589.629L493.804 589.688 493.86 589.743C494.404 590.287 494.983 590.794 495.596 591.258 495.985 591.558 496.213 592.021 496.214 592.511L496.214 596.484 487.809 596.484C487.809 596.614 487.829 596.744 487.829 596.875 487.825 597.548 487.763 598.218 487.641 598.88L498.61 598.88 498.61 592.516C498.607 591.287 498.038 590.127 497.067 589.372Z" fill="#262626"/><path d="M476.449 587.896C471.487 587.896 467.464 591.918 467.464 596.88 467.464 601.842 471.487 605.865 476.449 605.865 481.411 605.865 485.433 601.842 485.433 596.88 485.428 591.92 481.408 587.901 476.449 587.896ZM476.449 603.469C472.81 603.469 469.86 600.519 469.86 596.88 469.86 593.241 472.81 590.292 476.449 590.292 480.087 590.292 483.037 593.241 483.037 596.88 483.033 600.517 480.086 603.465 476.449 603.469Z" fill="#262626"/></g></svg>