<svg width="115" height="115" xmlns="http://www.w3.org/2000/svg" xmlns:xlink="http://www.w3.org/1999/xlink" xml:space="preserve" overflow="hidden"><defs><clipPath id="clip0"><rect x="232" y="528" width="115" height="115"/></clipPath></defs><g clip-path="url(#clip0)" transform="translate(-232 -528)"><path d="M257.761 587.896C252.799 587.896 248.777 591.918 248.777 596.88 248.777 601.842 252.799 605.865 257.761 605.865 262.723 605.865 266.746 601.842 266.746 596.88 266.74 591.92 262.721 587.901 257.761 587.896ZM257.761 603.469C254.122 603.469 251.173 600.519 251.173 596.88 251.173 593.241 254.122 590.292 257.761 590.292 261.4 590.292 264.35 593.241 264.35 596.88 264.346 600.517 261.398 603.465 257.761 603.469Z" fill="#FFC000"/><path d="M269.087 597.939C269.013 598.753 268.85 599.556 268.601 600.335L311.606 600.335C311.359 599.556 311.196 598.753 311.121 597.939Z" fill="#FFC000"/><path d="M343.067 589.372C342.533 588.968 342.028 588.527 341.554 588.054 339.789 586.04 336.943 582.871 333.829 581.383 325.49 577.395 312.266 576.378 312.266 576.378L306.134 575.605C299.806 571.688 293.209 568.223 286.393 565.236 285.778 564.99 285.081 565.289 284.835 565.903 284.6 566.49 284.862 567.16 285.434 567.431 290.485 569.643 295.414 572.122 300.201 574.858L299.089 574.719 296.642 574.719C295.347 574.719 294.298 575.768 294.298 577.063L280.446 577.063C280.167 577.063 279.889 577.036 279.615 576.983L278.725 576.809 273.933 575.881 273.933 572.323C273.933 571.661 273.397 571.125 272.735 571.125 272.074 571.125 271.537 571.661 271.537 572.323L271.537 575.416 262.247 573.769C260.816 573.528 259.352 573.565 257.935 573.877 256.703 574.151 255.447 574.512 254.762 574.715 250.458 576.021 239.634 579.788 236.533 581.903 234.193 583.498 235.555 592.865 235.555 592.865L234.402 594.318 234.369 595.283C234.324 596.643 235.237 597.848 236.558 598.172L237.828 598.485C239.787 598.871 241.775 599.096 243.771 599.157L246.646 599.319C246.47 598.526 246.38 597.716 246.377 596.904L243.845 596.76C241.999 596.703 240.162 596.497 238.349 596.146L237.132 595.844C236.915 595.788 236.765 595.589 236.773 595.365L236.778 595.19 237.44 594.351 238.083 593.542 237.934 592.517C237.406 588.88 237.448 584.802 238.015 583.798 240.868 581.948 250.824 578.407 255.452 577.009 256.223 576.78 257.368 576.456 258.458 576.214 259.577 575.968 260.732 575.939 261.862 576.13L278.273 579.158 279.164 579.332C279.592 579.413 280.026 579.453 280.461 579.452L296.693 579.452 296.693 577.115 298.938 577.115 311.967 578.755 312.024 578.762 312.082 578.762C312.21 578.771 324.951 579.788 332.796 583.54 335.579 584.87 338.398 588.084 339.753 589.629L339.804 589.688 339.86 589.743C340.404 590.287 340.983 590.794 341.596 591.258 341.985 591.558 342.213 592.021 342.214 592.511L342.214 596.484 333.809 596.484C333.809 596.614 333.829 596.744 333.829 596.875 333.825 597.548 333.763 598.218 333.641 598.88L344.61 598.88 344.61 592.516C344.607 591.287 344.038 590.127 343.067 589.372Z" fill="#FFC000"/><path d="M322.449 587.896C317.487 587.896 313.464 591.918 313.464 596.88 313.464 601.842 317.487 605.865 322.449 605.865 327.411 605.865 331.433 601.842 331.433 596.88 331.428 591.92 327.408 587.901 322.449 587.896ZM322.449 603.469C318.81 603.469 315.86 600.519 315.86 596.88 315.86 593.241 318.81 590.292 322.449 590.292 326.087 590.292 329.037 593.241 329.037 596.88 329.033 600.517 326.086 603.465 322.449 603.469Z" fill="#FFC000"/></g></svg>